<svg width="218" height="163" viewBox="0 0 218 163" fill="none" xmlns="http://www.w3.org/2000/svg">
<g filter="url(#filter0_di_1_44)">
<path fill-rule="evenodd" clip-rule="evenodd" d="M161.367 143.475C153.01 150.746 142.897 155 132 155C118.506 155 106.212 148.476 96.9703 137.778C89.6501 145.644 80.8645 149.936 71.8265 149.07C58.4378 147.786 47.7443 135.492 42.6369 118L42.5 118C21.237 118 4 103.673 4 86C4 68.3269 21.237 54 42.5 54C44.3813 54 46.231 54.1122 48.0401 54.3288C56.3384 37.1066 69.6073 26.2976 83.4702 27.6267C89.8914 28.2424 95.6927 31.3906 100.555 36.4301C109.288 28.0026 120.183 23 132 23C157.011 23 177.897 45.411 182.874 75.2743C200.416 77.4905 214 92.8642 214 111.5C214 131.658 198.106 148 178.5 148C172.287 148 166.446 146.359 161.367 143.475Z" fill="white"/>
</g>
<g filter="url(#filter1_if_1_44)">
<path d="M176.374 58.3226C183.02 81.6967 170.751 105.665 148.97 111.858C127.19 118.051 104.146 104.122 97.5 80.7484C90.8542 57.3743 103.123 33.4057 124.904 27.2129C146.684 21.0202 169.728 34.9485 176.374 58.3226Z" fill="white"/>
</g>
<g filter="url(#filter2_if_1_44)">
<path d="M106.702 53.8156C111.285 69.9337 102.872 86.4484 87.9105 90.7022C72.9494 94.9561 57.1059 85.3381 52.5231 69.22C47.9403 53.1019 56.3536 36.5872 71.3147 32.3333C86.2759 28.0795 102.119 37.6974 106.702 53.8156Z" fill="white"/>
</g>
<defs>
<filter id="filter0_di_1_44" x="0" y="18" width="224" height="145" filterUnits="userSpaceOnUse" color-interpolation-filters="sRGB">
<feFlood flood-opacity="0" result="BackgroundImageFix"/>
<feColorMatrix in="SourceAlpha" type="matrix" values="0 0 0 0 0 0 0 0 0 0 0 0 0 0 0 0 0 0 127 0" result="hardAlpha"/>
<feOffset dy="4"/>
<feGaussianBlur stdDeviation="2"/>
<feComposite in2="hardAlpha" operator="out"/>
<feColorMatrix type="matrix" values="0 0 0 0 0 0 0 0 0 0 0 0 0 0 0 0 0 0 0.25 0"/>
<feBlend mode="normal" in2="BackgroundImageFix" result="effect1_dropShadow_1_44"/>
<feBlend mode="normal" in="SourceGraphic" in2="effect1_dropShadow_1_44" result="shape"/>
<feColorMatrix in="SourceAlpha" type="matrix" values="0 0 0 0 0 0 0 0 0 0 0 0 0 0 0 0 0 0 127 0" result="hardAlpha"/>
<feOffset dx="10" dy="-5"/>
<feGaussianBlur stdDeviation="15"/>
<feComposite in2="hardAlpha" operator="arithmetic" k2="-1" k3="1"/>
<feColorMatrix type="matrix" values="0 0 0 0 1 0 0 0 0 0.737255 0 0 0 0 0.643137 0 0 0 1 0"/>
<feBlend mode="normal" in2="shape" result="effect2_innerShadow_1_44"/>
</filter>
<filter id="filter1_if_1_44" x="70.6941" y="0.741943" width="132.486" height="137.587" filterUnits="userSpaceOnUse" color-interpolation-filters="sRGB">
<feFlood flood-opacity="0" result="BackgroundImageFix"/>
<feBlend mode="normal" in="SourceGraphic" in2="BackgroundImageFix" result="shape"/>
<feColorMatrix in="SourceAlpha" type="matrix" values="0 0 0 0 0 0 0 0 0 0 0 0 0 0 0 0 0 0 127 0" result="hardAlpha"/>
<feOffset dx="10"/>
<feGaussianBlur stdDeviation="10"/>
<feComposite in2="hardAlpha" operator="arithmetic" k2="-1" k3="1"/>
<feColorMatrix type="matrix" values="0 0 0 0 1 0 0 0 0 0.737255 0 0 0 0 0.643137 0 0 0 1 0"/>
<feBlend mode="normal" in2="shape" result="effect1_innerShadow_1_44"/>
<feGaussianBlur stdDeviation="12.5" result="effect2_foregroundBlur_1_44"/>
</filter>
<filter id="filter2_if_1_44" x="26.2732" y="6.32666" width="106.679" height="110.382" filterUnits="userSpaceOnUse" color-interpolation-filters="sRGB">
<feFlood flood-opacity="0" result="BackgroundImageFix"/>
<feBlend mode="normal" in="SourceGraphic" in2="BackgroundImageFix" result="shape"/>
<feColorMatrix in="SourceAlpha" type="matrix" values="0 0 0 0 0 0 0 0 0 0 0 0 0 0 0 0 0 0 127 0" result="hardAlpha"/>
<feOffset dx="10"/>
<feGaussianBlur stdDeviation="5"/>
<feComposite in2="hardAlpha" operator="arithmetic" k2="-1" k3="1"/>
<feColorMatrix type="matrix" values="0 0 0 0 1 0 0 0 0 0.737255 0 0 0 0 0.643137 0 0 0 1 0"/>
<feBlend mode="normal" in2="shape" result="effect1_innerShadow_1_44"/>
<feGaussianBlur stdDeviation="12.5" result="effect2_foregroundBlur_1_44"/>
</filter>
</defs>
</svg>
