<svg width="395" height="254" viewBox="0 0 395 254" fill="none" xmlns="http://www.w3.org/2000/svg">
<g filter="url(#filter0_di_1_59)">
<path fill-rule="evenodd" clip-rule="evenodd" d="M241.79 206.278C227.677 220.151 206.261 229 182.284 229C149.92 229 122.222 212.876 110.85 190.039C102.856 191.729 94.3168 192.644 85.4465 192.644C40.4648 192.644 4 169.132 4 140.129C4 111.126 40.4648 87.6139 85.4465 87.6139C90.0741 87.6139 94.6115 87.8627 99.0284 88.3408C101.47 53.068 142.692 25 193.187 25C245.252 25 287.459 54.8418 287.459 91.6535C287.459 93.1872 287.386 94.7089 287.242 96.2168C294.235 93.2991 302.155 91.6535 310.547 91.6535C338.881 91.6535 361.851 110.418 361.851 133.564C361.851 143.002 358.033 151.71 351.59 158.716C370.217 172.461 378.672 189.974 371.411 204.898C360.473 227.38 318.008 235.472 276.565 222.972C262.943 218.863 251.128 213.042 241.79 206.278Z" fill="white"/>
</g>
<g filter="url(#filter1_if_1_59)">
<ellipse cx="197.676" cy="127" rx="100.044" ry="102" fill="white" fill-opacity="0.05"/>
</g>
<g filter="url(#filter2_if_1_59)">
<path d="M369.547 135.069C369.547 159.331 342.845 178.999 309.905 178.999C276.966 178.999 250.263 159.331 250.263 135.069C250.263 110.807 276.966 91.1381 309.905 91.1381C342.845 91.1381 369.547 110.807 369.547 135.069Z" fill="white" fill-opacity="0.05"/>
</g>
<defs>
<filter id="filter0_di_1_59" x="0" y="20" width="384" height="217" filterUnits="userSpaceOnUse" color-interpolation-filters="sRGB">
<feFlood flood-opacity="0" result="BackgroundImageFix"/>
<feColorMatrix in="SourceAlpha" type="matrix" values="0 0 0 0 0 0 0 0 0 0 0 0 0 0 0 0 0 0 127 0" result="hardAlpha"/>
<feOffset dy="4"/>
<feGaussianBlur stdDeviation="2"/>
<feComposite in2="hardAlpha" operator="out"/>
<feColorMatrix type="matrix" values="0 0 0 0 0 0 0 0 0 0 0 0 0 0 0 0 0 0 0.25 0"/>
<feBlend mode="normal" in2="BackgroundImageFix" result="effect1_dropShadow_1_59"/>
<feBlend mode="normal" in="SourceGraphic" in2="effect1_dropShadow_1_59" result="shape"/>
<feColorMatrix in="SourceAlpha" type="matrix" values="0 0 0 0 0 0 0 0 0 0 0 0 0 0 0 0 0 0 127 0" result="hardAlpha"/>
<feOffset dx="10" dy="-5"/>
<feGaussianBlur stdDeviation="15"/>
<feComposite in2="hardAlpha" operator="arithmetic" k2="-1" k3="1"/>
<feColorMatrix type="matrix" values="0 0 0 0 1 0 0 0 0 0.737255 0 0 0 0 0.643137 0 0 0 1 0"/>
<feBlend mode="normal" in2="shape" result="effect2_innerShadow_1_59"/>
</filter>
<filter id="filter1_if_1_59" x="72.6314" y="0" width="250.089" height="254" filterUnits="userSpaceOnUse" color-interpolation-filters="sRGB">
<feFlood flood-opacity="0" result="BackgroundImageFix"/>
<feBlend mode="normal" in="SourceGraphic" in2="BackgroundImageFix" result="shape"/>
<feColorMatrix in="SourceAlpha" type="matrix" values="0 0 0 0 0 0 0 0 0 0 0 0 0 0 0 0 0 0 127 0" result="hardAlpha"/>
<feOffset dx="10"/>
<feGaussianBlur stdDeviation="15"/>
<feComposite in2="hardAlpha" operator="arithmetic" k2="-1" k3="1"/>
<feColorMatrix type="matrix" values="0 0 0 0 1 0 0 0 0 0.737255 0 0 0 0 0.643137 0 0 0 1 0"/>
<feBlend mode="normal" in2="shape" result="effect1_innerShadow_1_59"/>
<feGaussianBlur stdDeviation="12.5" result="effect2_foregroundBlur_1_59"/>
</filter>
<filter id="filter2_if_1_59" x="225.263" y="66.1381" width="169.284" height="137.861" filterUnits="userSpaceOnUse" color-interpolation-filters="sRGB">
<feFlood flood-opacity="0" result="BackgroundImageFix"/>
<feBlend mode="normal" in="SourceGraphic" in2="BackgroundImageFix" result="shape"/>
<feColorMatrix in="SourceAlpha" type="matrix" values="0 0 0 0 0 0 0 0 0 0 0 0 0 0 0 0 0 0 127 0" result="hardAlpha"/>
<feOffset dx="10"/>
<feGaussianBlur stdDeviation="10"/>
<feComposite in2="hardAlpha" operator="arithmetic" k2="-1" k3="1"/>
<feColorMatrix type="matrix" values="0 0 0 0 1 0 0 0 0 0.737255 0 0 0 0 0.643137 0 0 0 1 0"/>
<feBlend mode="normal" in2="shape" result="effect1_innerShadow_1_59"/>
<feGaussianBlur stdDeviation="12.5" result="effect2_foregroundBlur_1_59"/>
</filter>
</defs>
</svg>
