<svg width="256" height="250" viewBox="0 0 256 250" fill="none" xmlns="http://www.w3.org/2000/svg">
<ellipse cx="124.5" cy="137.5" rx="111.5" ry="112.5" fill="white"/>
<path d="M125.001 0C55.9736 0 0 55.9639 0 125.001C0 180.229 35.8164 227.086 85.4834 243.614C91.7305 244.771 94.0244 240.902 94.0244 237.601C94.0244 234.62 93.9072 224.773 93.8545 214.329C59.0791 221.89 51.7412 199.58 51.7412 199.58C46.0547 185.132 37.8613 181.289 37.8613 181.289C26.5205 173.531 38.7168 173.691 38.7168 173.691C51.2686 174.572 57.8779 186.572 57.8779 186.572C69.0273 205.682 87.1211 200.157 94.2539 196.963C95.376 188.885 98.6152 183.369 102.19 180.248C74.4258 177.088 45.2393 166.369 45.2393 118.473C45.2393 104.825 50.1221 93.6738 58.1182 84.9199C56.8203 81.7715 52.542 69.0586 59.3291 51.8398C59.3291 51.8398 69.8262 48.4805 93.7139 64.6533C103.685 61.8838 114.378 60.4951 125.001 60.4473C135.624 60.4951 146.326 61.8828 156.315 64.6533C180.174 48.4814 190.656 51.8408 190.656 51.8408C197.46 69.0576 193.18 81.7725 191.882 84.9199C199.896 93.6738 204.746 104.825 204.746 118.473C204.746 166.483 175.504 177.055 147.669 180.149C152.152 184.028 156.147 191.636 156.147 203.298C156.147 220.022 156.003 233.483 156.003 237.601C156.003 240.928 158.253 244.825 164.589 243.597C214.229 227.051 250 180.212 250 125.002C250 55.9639 194.034 0 125.001 0ZM46.8174 178.066C46.542 178.687 45.5645 178.874 44.6748 178.447C43.7676 178.04 43.2588 177.193 43.5518 176.57C43.8213 175.931 44.8008 175.752 45.7051 176.181C46.6133 176.589 47.1309 177.443 46.8174 178.066ZM52.9658 183.553C52.3701 184.105 51.2041 183.849 50.4131 182.976C49.5957 182.104 49.4424 180.938 50.0469 180.378C50.6621 179.825 51.792 180.084 52.6113 180.955C53.4297 181.837 53.5879 182.994 52.9658 183.553ZM57.1846 190.572C56.418 191.104 55.166 190.605 54.3916 189.494C53.626 188.383 53.626 187.05 54.4082 186.516C55.1846 185.981 56.418 186.462 57.2021 187.565C57.9658 188.695 57.9658 190.028 57.1836 190.573L57.1846 190.572ZM64.3174 198.702C63.6328 199.458 62.1729 199.255 61.1045 198.224C60.0117 197.216 59.708 195.786 60.3955 195.03C61.0889 194.272 62.5566 194.485 63.6328 195.509C64.7168 196.515 65.0488 197.955 64.3174 198.702ZM73.5381 201.446C73.2354 202.426 71.8291 202.871 70.4141 202.455C69 202.026 68.0752 200.88 68.3604 199.891C68.6543 198.904 70.0664 198.441 71.4922 198.887C72.9043 199.313 73.832 200.45 73.5381 201.446ZM84.0303 202.611C84.0654 203.642 82.8652 204.496 81.3789 204.516C79.8848 204.549 78.6748 203.715 78.6582 202.699C78.6582 201.659 79.832 200.813 81.3271 200.787C82.8135 200.758 84.0303 201.586 84.0303 202.611ZM94.3379 202.216C94.5156 203.222 93.4834 204.255 92.0068 204.53C90.5566 204.795 89.2129 204.174 89.0283 203.177C88.8486 202.146 89.9004 201.112 91.3486 200.846C92.8271 200.589 94.1494 201.193 94.3379 202.216Z" fill="#543C35"/>
</svg>
