<svg width="24" height="24" viewBox="0 0 24 24" fill="none" xmlns="http://www.w3.org/2000/svg">
<path d="M23 12C23 18.0751 18.0751 23 12 23C5.92487 23 1 18.0751 1 12C1 5.92486 5.92486 1 12 1C18.0751 1 23 5.92487 23 12Z" stroke="#473232" stroke-width="2"/>
<path d="M7.19934 15.3C6.97134 15.3 6.74334 15.216 6.56334 15.036L4.16334 12.636C3.81534 12.288 3.81534 11.7119 4.16334 11.3639L6.56334 8.96394C6.91134 8.61594 7.48734 8.61594 7.83534 8.96394C8.18334 9.31194 8.18334 9.88801 7.83534 10.236L6.07134 12L7.83534 13.7639C8.18334 14.1119 8.18334 14.688 7.83534 15.036C7.65534 15.216 7.42734 15.3 7.19934 15.3Z" fill="#473232"/>
<path d="M16.7994 15.3C16.5714 15.3 16.3434 15.216 16.1634 15.036C15.8154 14.688 15.8154 14.1119 16.1634 13.7639L17.9274 12L16.1634 10.236C15.8154 9.88801 15.8154 9.31194 16.1634 8.96394C16.5114 8.61594 17.0874 8.61594 17.4354 8.96394L19.8354 11.3639C20.1834 11.7119 20.1834 12.288 19.8354 12.636L17.4354 15.036C17.2554 15.216 17.0274 15.3 16.7994 15.3Z" fill="#473232"/>
<path d="M10.8001 15.6961C10.6801 15.6961 10.5601 15.6721 10.4521 15.6241C9.99612 15.4321 9.78012 14.9041 9.98412 14.4361L12.3841 8.83206C12.5761 8.37606 13.1041 8.16004 13.5601 8.36404C14.0161 8.55604 14.2321 9.08411 14.0281 9.55211L11.6281 15.1561C11.4841 15.4921 11.1481 15.6961 10.8001 15.6961Z" fill="#473232"/>
</svg>
