<svg width="537" height="193" viewBox="0 0 537 193" fill="none" xmlns="http://www.w3.org/2000/svg">
<g filter="url(#filter0_di_1_29)">
<path fill-rule="evenodd" clip-rule="evenodd" d="M531.3 135.874C532.414 131.309 533 126.572 533 121.714C533 84.7112 498.974 54.7142 457 54.7142C435.575 54.7142 416.221 62.5298 402.406 75.1032C392.076 44.1941 360.657 21.7142 323.5 21.7142C294.98 21.7142 269.839 34.9584 255.022 55.0929C244.706 31.2444 214.809 14 179.536 14C135.72 14 100.201 40.6071 100.201 73.4286C100.201 83.5428 103.574 93.0668 109.523 101.404C57.8927 123.576 32.2765 142.838 4 196H523.735C532.384 172.934 535.153 156.648 531.3 135.874Z" fill="white"/>
</g>
<g filter="url(#filter1_if_1_29)">
<path d="M251.674 131.714C251.674 163.589 218.392 189.429 177.337 189.429C136.282 189.429 103 163.589 103 131.714C103 99.8396 136.282 74 177.337 74C218.392 74 251.674 99.8396 251.674 131.714Z" fill="white" fill-opacity="0.05"/>
</g>
<g filter="url(#filter2_if_1_29)">
<path d="M414 110.5C414 157.72 376.616 196 330.5 196C284.384 196 247 157.72 247 110.5C247 63.2797 284.384 25 330.5 25C376.616 25 414 63.2797 414 110.5Z" fill="white" fill-opacity="0.05"/>
</g>
<defs>
<filter id="filter0_di_1_29" x="0" y="9" width="543" height="195" filterUnits="userSpaceOnUse" color-interpolation-filters="sRGB">
<feFlood flood-opacity="0" result="BackgroundImageFix"/>
<feColorMatrix in="SourceAlpha" type="matrix" values="0 0 0 0 0 0 0 0 0 0 0 0 0 0 0 0 0 0 127 0" result="hardAlpha"/>
<feOffset dy="4"/>
<feGaussianBlur stdDeviation="2"/>
<feComposite in2="hardAlpha" operator="out"/>
<feColorMatrix type="matrix" values="0 0 0 0 0 0 0 0 0 0 0 0 0 0 0 0 0 0 0.25 0"/>
<feBlend mode="normal" in2="BackgroundImageFix" result="effect1_dropShadow_1_29"/>
<feBlend mode="normal" in="SourceGraphic" in2="effect1_dropShadow_1_29" result="shape"/>
<feColorMatrix in="SourceAlpha" type="matrix" values="0 0 0 0 0 0 0 0 0 0 0 0 0 0 0 0 0 0 127 0" result="hardAlpha"/>
<feOffset dx="10" dy="-5"/>
<feGaussianBlur stdDeviation="15"/>
<feComposite in2="hardAlpha" operator="arithmetic" k2="-1" k3="1"/>
<feColorMatrix type="matrix" values="0 0 0 0 1 0 0 0 0 0.737255 0 0 0 0 0.643137 0 0 0 1 0"/>
<feBlend mode="normal" in2="shape" result="effect2_innerShadow_1_29"/>
</filter>
<filter id="filter1_if_1_29" x="78" y="49" width="198.674" height="165.429" filterUnits="userSpaceOnUse" color-interpolation-filters="sRGB">
<feFlood flood-opacity="0" result="BackgroundImageFix"/>
<feBlend mode="normal" in="SourceGraphic" in2="BackgroundImageFix" result="shape"/>
<feColorMatrix in="SourceAlpha" type="matrix" values="0 0 0 0 0 0 0 0 0 0 0 0 0 0 0 0 0 0 127 0" result="hardAlpha"/>
<feOffset dx="10"/>
<feGaussianBlur stdDeviation="15"/>
<feComposite in2="hardAlpha" operator="arithmetic" k2="-1" k3="1"/>
<feColorMatrix type="matrix" values="0 0 0 0 1 0 0 0 0 0.737255 0 0 0 0 0.643137 0 0 0 1 0"/>
<feBlend mode="normal" in2="shape" result="effect1_innerShadow_1_29"/>
<feGaussianBlur stdDeviation="12.5" result="effect2_foregroundBlur_1_29"/>
</filter>
<filter id="filter2_if_1_29" x="222" y="0" width="217" height="221" filterUnits="userSpaceOnUse" color-interpolation-filters="sRGB">
<feFlood flood-opacity="0" result="BackgroundImageFix"/>
<feBlend mode="normal" in="SourceGraphic" in2="BackgroundImageFix" result="shape"/>
<feColorMatrix in="SourceAlpha" type="matrix" values="0 0 0 0 0 0 0 0 0 0 0 0 0 0 0 0 0 0 127 0" result="hardAlpha"/>
<feOffset dx="10"/>
<feGaussianBlur stdDeviation="15"/>
<feComposite in2="hardAlpha" operator="arithmetic" k2="-1" k3="1"/>
<feColorMatrix type="matrix" values="0 0 0 0 1 0 0 0 0 0.737255 0 0 0 0 0.643137 0 0 0 1 0"/>
<feBlend mode="normal" in2="shape" result="effect1_innerShadow_1_29"/>
<feGaussianBlur stdDeviation="12.5" result="effect2_foregroundBlur_1_29"/>
</filter>
</defs>
</svg>
