<svg width="250" height="250" viewBox="0 0 250 250" fill="none" xmlns="http://www.w3.org/2000/svg">
<g clip-path="url(#clip0_349_182)">
<circle cx="125" cy="125" r="125" fill="#543C35"/>
<path d="M93.6207 116.81H156.379ZM93.6207 143.707H156.379ZM93.6207 170.603H133.965Z" fill="white"/>
<path d="M93.6207 116.81H156.379M93.6207 143.707H156.379M93.6207 170.603H133.965" stroke="white" stroke-width="12" stroke-linecap="round" stroke-linejoin="round"/>
<path d="M177.052 86.5517V86.0517H176.552H145.172C143.522 86.0517 141.939 85.396 140.771 84.2287C139.604 83.0615 138.948 81.4783 138.948 79.8276V48.4483V47.9483H138.448H75.6897C74.9626 47.9483 74.2653 48.2371 73.7512 48.7512C73.2371 49.2653 72.9483 49.9626 72.9483 50.6897V198.621C72.9483 199.348 73.2371 200.045 73.7512 200.559C74.2653 201.073 74.9626 201.362 75.6897 201.362H174.31C175.037 201.362 175.735 201.073 176.249 200.559C176.763 200.045 177.052 199.348 177.052 198.621V86.5517ZM152.25 57.6038L151.397 56.7502V57.9573V73.1034V73.6034H151.897H167.043H168.25L167.396 72.7499L152.25 57.6038ZM60.5 50.6897C60.5 42.3006 67.3006 35.5 75.6897 35.5H145.172C146.823 35.5 148.406 36.1556 149.574 37.3228L187.677 75.4261C188.255 76.0041 188.714 76.6903 189.026 77.4455C189.339 78.2007 189.5 79.0101 189.5 79.8275V198.621C189.5 207.01 182.699 213.81 174.31 213.81H75.6897C67.3006 213.81 60.5 207.01 60.5 198.621V50.6897Z" fill="white" stroke="white"/>
</g>
<defs>
<clipPath id="clip0_349_182">
<rect width="250" height="250" fill="white"/>
</clipPath>
</defs>
</svg>
