<svg width="24" height="24" viewBox="0 0 24 24" fill="none" xmlns="http://www.w3.org/2000/svg">
<path d="M12 0C5.37272 0 0 5.37272 0 12C0 18.6273 5.37272 24 12 24C18.6273 24 24 18.6273 24 12C24 5.37272 18.6273 0 12 0ZM12 22C6.47728 22 2.00002 17.5227 2.00002 12C2.00002 6.47728 6.47728 2.00002 12 2.00002C17.5227 2.00002 22 6.47728 22 12C22 17.5227 17.5227 22 12 22Z" fill="#473232"/>
<path d="M18 11H8.41421L10.7071 8.70714C11.0976 8.31662 11.0976 7.68343 10.7071 7.29292C10.3166 6.9024 9.6834 6.9024 9.29288 7.29292L5.2929 11.2929C5.29252 11.2933 5.29224 11.2937 5.29191 11.294C5.26904 11.3169 5.24729 11.341 5.22666 11.3662C5.2171 11.3778 5.20885 11.39 5.1999 11.402C5.1893 11.4161 5.17829 11.43 5.16844 11.4448C5.15888 11.459 5.15063 11.4738 5.14191 11.4885C5.13394 11.5018 5.12555 11.5149 5.11819 11.5286C5.11022 11.5435 5.10343 11.5589 5.09625 11.5742C5.08946 11.5885 5.08233 11.6026 5.07619 11.6173C5.0701 11.6321 5.06513 11.6472 5.05979 11.6622C5.05411 11.678 5.04807 11.6935 5.04319 11.7097C5.03864 11.7247 5.03532 11.7399 5.03152 11.7551C5.02735 11.7715 5.02275 11.7878 5.01943 11.8045C5.01596 11.8221 5.01389 11.8398 5.01132 11.8575C5.00925 11.8721 5.00644 11.8864 5.00499 11.9012C4.99852 11.9669 4.99852 12.033 5.00499 12.0986C5.00644 12.1134 5.00921 12.1277 5.01132 12.1424C5.01385 12.16 5.01591 12.1778 5.01943 12.1953C5.02275 12.2121 5.02735 12.2283 5.03152 12.2448C5.03532 12.26 5.03864 12.2752 5.04319 12.2902C5.04807 12.3063 5.05411 12.3219 5.05979 12.3377C5.06518 12.3527 5.0701 12.3678 5.07619 12.3826C5.08229 12.3973 5.08946 12.4114 5.09625 12.4257C5.10343 12.441 5.11018 12.4563 5.11819 12.4712C5.12555 12.485 5.13394 12.4981 5.14191 12.5114C5.15063 12.526 5.15893 12.5409 5.16844 12.5551C5.17833 12.5699 5.1893 12.5837 5.1999 12.5979C5.20885 12.6099 5.21714 12.6221 5.22666 12.6337C5.24724 12.6588 5.26899 12.6829 5.29191 12.7059C5.29224 12.7063 5.29257 12.7067 5.2929 12.707L9.29288 16.707C9.6834 17.0975 10.3166 17.0975 10.7071 16.707C11.0976 16.3164 11.0976 15.6833 10.7071 15.2927L8.41421 12.9999H18C18.5523 12.9999 19 12.5522 19 11.9999C19 11.4476 18.5523 11 18 11Z" fill="#473232"/>
</svg>
