<svg width="24" height="28" viewBox="0 0 24 28" fill="none" xmlns="http://www.w3.org/2000/svg">
<path d="M14.9999 1.65187C14.9999 0.878666 14.3284 0.251875 13.4999 0.251875C12.6715 0.251875 11.9999 0.878666 11.9999 1.65187H14.9999ZM22.2299 11.2001C23.0583 11.2001 23.7298 10.5733 23.7298 9.80009C23.7298 9.0269 23.0583 8.4001 22.2299 8.4001V11.2001ZM17.6999 25.2H6.29996V28H17.6999V25.2ZM2.99998 22.12V5.88011H2.62864e-06V22.12H2.99998ZM6.29996 2.80013H11.5117V0.000142587H6.29996V2.80013ZM20.9999 11.6558V22.12H23.9998V11.6558H20.9999ZM11.5117 2.80013C12.3169 2.80013 12.475 2.80913 12.6074 2.83881L13.3078 0.116188C12.7498 -0.00885931 12.1741 0.000142587 11.5117 0.000142587V2.80013ZM15.9665 1.72234C15.4981 1.28521 15.0979 0.898924 14.6086 0.619051L13.0411 3.00643C13.1572 3.07287 13.2758 3.17085 13.8452 3.70224L15.9665 1.72234ZM12.6074 2.83881C12.7606 2.87311 12.9068 2.92967 13.0411 3.00643L14.6086 0.619051C14.206 0.388767 13.7669 0.219074 13.3078 0.116188L12.6074 2.83881ZM6.29996 25.2C5.43514 25.2 4.87673 25.1989 4.45173 25.1666C4.04423 25.1355 3.89315 25.0827 3.81899 25.0474L2.45703 27.5422C3.0246 27.8121 3.61442 27.9119 4.20743 27.9572C4.78293 28.0011 5.48464 28 6.29996 28V25.2ZM2.62864e-06 22.12C2.62864e-06 22.8811 -0.00116732 23.536 0.0458574 24.073C0.0943071 24.6266 0.201287 25.1771 0.49047 25.7068L3.16347 24.4356C3.12568 24.3663 3.06916 24.2253 3.03588 23.8451C3.00115 23.4483 2.99998 22.9273 2.99998 22.12H2.62864e-06ZM3.81899 25.0474C3.53675 24.9132 3.30729 24.6991 3.16347 24.4356L0.49047 25.7068C0.921897 26.4971 1.6103 27.1396 2.45703 27.5422L3.81899 25.0474ZM17.6999 28C18.5153 28 19.217 28.0011 19.7924 27.9572C20.3855 27.9119 20.9753 27.8121 21.5429 27.5422L20.1809 25.0474C20.1066 25.0827 19.9556 25.1355 19.5482 25.1666C19.1231 25.1989 18.5648 25.2 17.6999 25.2V28ZM20.9999 22.12C20.9999 22.9273 20.9987 23.4483 20.964 23.8451C20.9307 24.2253 20.8742 24.3663 20.8364 24.4356L23.5094 25.7068C23.7986 25.1771 23.9055 24.6266 23.9539 24.073C24.001 23.536 23.9998 22.8811 23.9998 22.12H20.9999ZM21.5429 27.5422C22.3896 27.1396 23.078 26.4971 23.5094 25.7068L20.8364 24.4356C20.6925 24.6991 20.4632 24.9132 20.1809 25.0474L21.5429 27.5422ZM20.0333 9.47788C20.6027 10.0093 20.7077 10.12 20.7788 10.2284L23.3367 8.7654C23.0369 8.30869 22.623 7.93513 22.1546 7.49799L20.0333 9.47788ZM23.9998 11.6558C23.9998 11.0375 24.0094 10.5003 23.8755 9.97942L20.9585 10.6331C20.9903 10.7567 20.9999 10.9043 20.9999 11.6558H23.9998ZM20.7788 10.2284C20.8611 10.3536 20.9217 10.4902 20.9585 10.6331L23.8755 9.97942C23.7653 9.55087 23.5835 9.14119 23.3367 8.7654L20.7788 10.2284ZM2.99998 5.88011C2.99998 5.07295 3.00115 4.55176 3.03588 4.1551C3.06916 3.77476 3.12568 3.63375 3.16347 3.56454L0.49047 2.29337C0.201287 2.8231 0.0943071 3.37361 0.0458574 3.92708C-0.00116732 4.46422 2.62864e-06 5.11915 2.62864e-06 5.88011H2.99998ZM6.29996 0.000142587C5.48464 0.000142587 4.78293 -0.000949369 4.20743 0.0429404C3.61442 0.0881602 3.0246 0.188008 2.45703 0.457912L3.81899 2.95271C3.89315 2.91745 4.04423 2.8647 4.45173 2.83363C4.87673 2.80122 5.43514 2.80013 6.29996 2.80013V0.000142587ZM3.16347 3.56454C3.30729 3.30112 3.53675 3.08694 3.81899 2.95271L2.45703 0.457912C1.6103 0.860578 0.921897 1.50309 0.49047 2.29337L3.16347 3.56454ZM11.9999 1.65187V8.4001H14.9999V1.65187H11.9999ZM14.9999 11.2001H22.2299V8.4001H14.9999V11.2001ZM11.9999 8.4001C11.9999 9.94649 13.343 11.2001 14.9999 11.2001V8.4001H11.9999ZM13.8452 3.70224L20.0333 9.47788L22.1546 7.49799L15.9665 1.72234L13.8452 3.70224Z" fill="#473232"/>
<path d="M13.636 12.0395C14.4397 11.8637 15.254 12.2912 15.4549 12.9945L16.2497 15.7763L17.0445 12.9945C17.2454 12.2912 18.0597 11.8637 18.8634 12.0395C19.667 12.2153 20.1557 12.9278 19.9547 13.631L17.7048 21.5057C17.538 22.0901 16.938 22.4999 16.2497 22.4999C15.5614 22.4999 14.9614 22.0901 14.7946 21.5057L12.5446 13.631C12.516 13.5308 12.5014 13.4304 12.4996 13.3313C12.4883 14.0476 11.8212 14.6252 10.9998 14.6252C10.2805 14.6252 9.81592 14.6258 9.46052 14.6471C9.11853 14.6676 8.98829 14.7025 8.92587 14.7251C8.55834 14.8583 8.26633 15.1138 8.1141 15.4354C8.08824 15.49 8.04832 15.604 8.02498 15.9033C8.00073 16.2142 7.99992 16.6207 7.99992 17.2501C7.99992 17.8796 8.00073 18.286 8.02498 18.5969C8.04832 18.8962 8.08824 19.0102 8.1141 19.0648C8.26633 19.3864 8.55834 19.6419 8.92587 19.7751C8.98829 19.7977 9.11853 19.8326 9.46052 19.8531C9.81592 19.8744 10.2805 19.875 10.9998 19.875C11.8283 19.875 12.4998 20.4626 12.4998 21.1875C12.4998 21.9123 11.8283 22.4999 10.9998 22.4999H10.9551C10.2957 22.4999 9.72702 22.5 9.25631 22.472C8.76158 22.4423 8.26673 22.3773 7.77785 22.2002C6.67526 21.8007 5.79924 21.034 5.34253 20.0694C5.14004 19.6415 5.06577 19.2086 5.03203 18.7757C4.99996 18.3645 4.99998 17.8677 5 17.2919V17.2501V17.2083C4.99998 16.6325 4.99996 16.1358 5.03203 15.7245C5.06577 15.2917 5.14004 14.8587 5.34253 14.4308C5.79924 13.4662 6.67525 12.6996 7.77785 12.3C8.26673 12.1229 8.76158 12.0579 9.25631 12.0282C9.72704 12.0003 10.2958 12.0003 10.9552 12.0003L10.9998 12.0003C11.8207 12.0003 12.4876 12.5772 12.4996 13.293C12.5091 12.7123 12.9617 12.187 13.636 12.0395Z" fill="#473232"/>
</svg>
