<svg width="28" height="28" viewBox="0 0 28 28" fill="none" xmlns="http://www.w3.org/2000/svg">
<path d="M19.3333 14C19.3333 16.9455 16.9455 19.3333 14 19.3333C11.0545 19.3333 8.66667 16.9455 8.66667 14C8.66667 11.0545 11.0545 8.66667 14 8.66667C16.9455 8.66667 19.3333 11.0545 19.3333 14ZM19.3333 14V16C19.3333 17.8409 20.8257 19.3333 22.6667 19.3333C24.5076 19.3333 26 17.8409 26 16V14C26 7.37259 20.6275 2 14 2C7.37259 2 2 7.37259 2 14C2 20.6275 7.37259 26 14 26H19.3333" stroke="#473232" stroke-width="3.5" stroke-linecap="round" stroke-linejoin="round"/>
</svg>
