<svg width="20" height="20" viewBox="0 0 20 20" fill="none" xmlns="http://www.w3.org/2000/svg">
<path fill-rule="evenodd" clip-rule="evenodd" d="M2.25203 8C2.08751 8.6392 2 9.3094 2 10C2 10.6906 2.08751 11.3608 2.25204 12H6.10516C6.03772 11.3727 6 10.7062 6 10C6 9.2938 6.03772 8.6273 6.10516 8H2.25203ZM3.07026 6H6.44148C6.74649 4.6871 7.17396 3.60504 7.60763 2.74755C7.68837 2.58792 7.76925 2.4362 7.8495 2.29235C5.81403 2.85906 4.10548 4.21041 3.07026 6ZM10 2.60481C9.8126 2.88536 9.6032 3.23336 9.3924 3.65018C9.0768 4.27421 8.7565 5.0555 8.5029 6H11.4971C11.2435 5.0555 10.9232 4.27421 10.6076 3.65018C10.3968 3.23336 10.1874 2.88536 10 2.60481ZM11.8818 8H8.1182C8.0431 8.6184 8 9.2848 8 10C8 10.7152 8.0431 11.3816 8.1182 12H11.8818C11.9569 11.3816 12 10.7152 12 10C12 9.2848 11.9569 8.6184 11.8818 8ZM13.8948 12C13.9623 11.3727 14 10.7062 14 10C14 9.2938 13.9623 8.6273 13.8948 8H17.748C17.9125 8.6392 18 9.3094 18 10C18 10.6906 17.9125 11.3608 17.748 12H13.8948ZM11.4971 14H8.5029C8.7565 14.9445 9.0768 15.7258 9.3924 16.3498C9.6032 16.7666 9.8126 17.1146 10 17.3952C10.1874 17.1146 10.3968 16.7666 10.6076 16.3498C10.9232 15.7258 11.2435 14.9445 11.4971 14ZM7.84951 17.7077C7.76925 17.5638 7.68837 17.4121 7.60763 17.2524C7.17396 16.395 6.74649 15.3129 6.44148 14H3.07026C4.10548 15.7896 5.81403 17.1409 7.84951 17.7077ZM12.1505 17.7076C12.2308 17.5638 12.3116 17.4121 12.3924 17.2524C12.826 16.395 13.2535 15.3129 13.5585 14H16.9297C15.8945 15.7896 14.186 17.1409 12.1505 17.7076ZM16.9297 6H13.5585C13.2535 4.6871 12.826 3.60504 12.3924 2.74755C12.3116 2.58792 12.2308 2.4362 12.1505 2.29235C14.186 2.85906 15.8945 4.21041 16.9297 6ZM0 10C0 4.47715 4.47715 0 10 0C15.5228 0 20 4.47715 20 10C20 15.5228 15.5228 20 10 20C4.47715 20 0 15.5228 0 10Z" fill="#0F1729"/>
</svg>
