<svg width="32" height="32" viewBox="0 0 32 32" fill="none" xmlns="http://www.w3.org/2000/svg">
<path d="M17.3756 10.8075L8.60509 2.05931C8.01855 1.47427 7.06881 1.47548 6.48377 2.06201L2.05931 6.49776C1.47427 7.08429 1.47548 8.03404 2.06201 8.61908L10.8782 17.4128M21.4089 14.8305L29.938 23.3379C30.5245 23.9229 30.5257 24.8727 29.9407 25.4592L25.5162 29.895C24.9312 30.4815 23.9815 30.4827 23.3949 29.8977L14.697 21.2219" stroke="#473232" stroke-width="3"/>
<line x1="12.9443" y1="6.77489" x2="9.95881" y2="9.76037" stroke="#473232" stroke-width="3"/>
<line x1="26.0461" y1="20.0607" x2="23.0607" y2="23.0461" stroke="#473232" stroke-width="3"/>
<path d="M21.5861 6.45575L25.8082 10.6778M2.92719 29.5928L2.99802 29.097C3.24866 27.3424 3.37399 26.4653 3.65906 25.6462C3.91202 24.9194 4.25757 24.2282 4.68721 23.5898C5.17138 22.8704 5.798 22.2438 7.05123 20.9905L24.4386 3.60316C25.6045 2.43726 27.4948 2.43726 28.6608 3.60314C29.8266 4.76904 29.8266 6.65934 28.6608 7.82524L10.9543 25.5317C9.81734 26.6686 9.24888 27.2372 8.60138 27.6892C8.02664 28.0904 7.40678 28.4228 6.75453 28.6796C6.0197 28.9689 5.2316 29.1278 3.65554 29.4458L2.92719 29.5928Z" stroke="#473232" stroke-width="3" stroke-linecap="round" stroke-linejoin="round"/>
</svg>
