<svg width="29" height="33" viewBox="0 0 29 33" fill="none" xmlns="http://www.w3.org/2000/svg">
<path d="M2.69235 19.8705C1.40615 22.9537 3.64145 26.675 6.88847 27.3273C4.3581 25.6281 2.77813 22.8983 2.69235 19.8705Z" fill="#473232" stroke="#473232" stroke-width="1.024"/>
<path d="M1 25.65C1.20972 28.2319 4.44773 29.8865 6.77137 28.8288C4.37911 28.3151 2.79227 27.8446 1 25.65Z" fill="#473232" stroke="#473232" stroke-width="1.024"/>
<path d="M20.0642 9.1536C20.9279 5.841 18.0744 2.53999 14.724 2.37766C17.5228 3.6613 19.5317 6.1375 20.0642 9.1536Z" fill="#473232" stroke="#473232" stroke-width="1.024"/>
<path d="M20.6339 6.87317C22.0789 4.95623 20.7383 1.99935 18.5014 1.4028C19.8707 3.12233 20.5451 4.6728 20.6339 6.87317Z" fill="#473232" stroke="#473232" stroke-width="1.024"/>
<path d="M26.0008 9.3126C25.5608 9.05091 25.0468 8.94152 24.5383 9.00135C21.4687 9.35946 21.3848 13.422 20.8857 15.0623C20.8857 15.0623 16.9693 8.83989 15.6209 6.79338C14.2304 4.68226 11.8746 5.42687 11.3112 6.7301C9.43183 5.18811 6.42742 6.96048 7.0777 9.02583C4.88399 9.1125 4.25541 11.3599 4.89847 12.6786C3.21189 12.8227 2.66885 14.9928 3.41071 16.4144C3.44914 16.4885 7.11778 22.0122 8.15457 23.9189C8.27494 24.1402 8.39806 24.3776 8.5274 24.6276C9.37741 26.2694 10.5417 28.5179 12.9883 30.1474C14.0417 30.8488 15.4188 31.1238 16.9719 30.9426C19.7093 30.6233 22.5987 28.9092 24.3334 26.5751C25.887 24.4849 26.4672 22.074 26.0113 19.6025C25.6019 17.3808 26.068 15.1882 26.4423 13.4261C26.8483 11.5138 27.1686 10.0032 26.0008 9.3126ZM24.6433 19.687C25.5675 24.5999 21.0903 29.3585 16.8781 29.8499C15.5912 30.0001 14.234 29.9477 13.3188 29.3381C10.6943 27.5899 9.80228 25.1516 8.90937 23.5122C7.84245 21.5508 5.35171 17.8331 4.13602 15.9585C3.63844 15.191 4.10886 13.3791 5.28032 13.2425L9.49711 20.0339L10.8668 20.653C10.8668 20.653 7.18985 14.6061 6.00474 12.5124C5.3129 11.29 6.06557 9.62881 7.34754 9.68434L12.5862 18.1475L13.9566 18.7683L7.86367 9.01575C7.63062 7.18842 10.1308 6.86781 10.8374 7.8683C12.6255 10.4007 16.0824 16.0125 16.0824 16.0125L17.4519 16.633L11.7275 7.43758C12.4869 6.15985 14.0874 6.13981 14.9351 7.48436C15.9534 9.09918 20.2871 16.1235 20.2871 16.1235C17.014 17.8059 15.1114 21.7977 17.9856 25.1788C15.5767 21.3967 18.6852 18.1627 20.6075 16.9894C21.335 16.5448 21.5396 15.8409 21.5396 15.8409L21.5379 15.8415C21.7493 15.3251 21.6578 14.6781 21.8548 13.5908C22.2819 11.2374 23.0909 9.92237 24.4843 9.75981C24.8055 9.72234 25.2383 9.91539 25.4559 10.1676C26.556 11.443 23.7844 15.1222 24.6433 19.687Z" fill="#473232" stroke="#473232" stroke-width="1.024"/>
</svg>
